#!OML:ASF E:\Steps\Project 1\Capture day 1\Session 2\Subject.ASF
:FULLY-SPECIFIED
:DEGREES
423
root 12.295 18.9252 8.63395 -153.749 5.42818 176.066
lowerback -22.8121 -3.00234 -5.8086
upperback 0.995475 -2.35198 0.716539
thorax 14.3161 -1.48242 3.3481
lowerneck -0.987302 -0.999363 -0.772577
upperneck 16.142 -0.645162 1.53046
head 5.01397 0.0763382 0.603791
rclavicle 2.10712e-014 -1.94809e-014
rhumerus -36.2609 -14.767 -77.7104
rradius 39.3478
rwrist -5.7972
rhand -9.07033 -411.667
rfingers 7.12502
rthumb 16.8787 -80.9535
lclavicle 2.10712e-014 -1.94809e-014
lhumerus -30.8998 18.0527 73.6264
lradius 9.93124
lwrist -25.6217
lhand -18.4428 -12.178
lfingers 7.12502
lthumb 7.84294 17.6565
rfemur -29.7778 8.37353 15.8213
rtibia 10.3572
rfoot -16.111 -0.52731
rtoes -17.1382
lfemur -29.4112 -9.25919 -24.0905
ltibia 12.8579
lfoot -7.44592 0.204048
ltoes -19.6052
424
root 12.305 18.9243 8.60384 -153.686 5.5179 176.133
lowerback -23.0094 -2.99973 -5.93691
upperback 0.901788 -2.29557 0.744403
thorax 14.32 -1.4614 3.47209
lowerneck -1.41507 -1.3569 -0.515225
upperneck 16.5848 -1.03806 0.854969
head 5.22347 -0.133102 0.333131
rclavicle -2.26118e-014 -1.33186e-014
rhumerus -36.2122 -14.9542 -77.5984
rradius 39.0142
rwrist -5.3574
rhand -9.22506 -411.196
rfingers 7.12502
rthumb 16.7298 -80.4952
lclavicle -2.26118e-014 -1.33186e-014
lhumerus -30.8446 18.6415 73.4567
lradius 9.19629
lwrist -26.0464
lhand -18.6932 -11.6823
lfingers 7.12502
lthumb 7.60133 18.1611
rfemur -29.6782 8.42416 15.9261
rtibia 10.2543
rfoot -16.2666 -0.567961
rtoes -18.3293
lfemur -29.2869 -9.13309 -24.0232
ltibia 12.7154
lfoot -7.60545 0.0876872
ltoes -19.4055
425
root 12.3118 18.9254 8.57131 -153.729 5.59612 176.176
lowerback -23.2233 -2.93546 -6.0039
upperback 0.925621 -2.16316 0.674486
thorax 14.4563 -1.40524 3.47314
lowerneck -1.73497 -1.4843 -0.46329
upperneck 16.204 -1.3022 1.02438
head 5.16223 -0.273197 0.360551
rclavicle 8.00108e-015 -6.16232e-015
rhumerus -36.1321 -15.2181 -77.629
rradius 38.8259
rwrist -4.98062
rhand -9.17531 -411.134
rfingers 7.12502
rthumb 16.7777 -80.4291
lclavicle 8.00108e-015 -6.16232e-015
lhumerus -30.4545 19.09 73.2507
lradius 8.4156
lwrist -25.9534
lhand -18.7604 -10.972
lfingers 7.12502
lthumb 7.5364 18.8737
rfemur -29.4053 8.43856 16.0253
rtibia 10.0732
rfoot -16.3652 -0.505527
rtoes -18.9947
lfemur -28.9821 -9.10496 -23.9896
ltibia 12.4821
lfoot -7.67833 0.0548116
ltoes -19.5641
426
root 12.3133 18.9264 8.53458 -153.776 5.66839 176.164
lowerback -23.5206 -2.85259 -6.03172
upperback 0.958739 -2.00044 0.548947
thorax 14.6443 -1.33021 3.39751
lowerneck -1.8739 -1.53069 -0.268769
upperneck 15.7928 -1.42506 1.00509
head 5.05777 -0.344019 0.313797
rclavicle 1.799e-014 2.15681e-014
rhumerus -36.016 -15.548 -77.679
rradius 38.5257
rwrist -4.70434
rhand -9.19416 -411.186
rfingers 7.12502
rthumb 16.7595 -80.483
lclavicle 1.799e-014 2.15681e-014
lhumerus -30.0322 19.4585 73.0455
lradius 7.71863
lwrist -25.8576
lhand -19.1074 -10.5805
lfingers 7.12502
lthumb 7.2015 19.277
rfemur -29.1054 8.38746 16.0617
rtibia 9.88706
rfoot -16.4132 -0.376337
rtoes -18.6681
lfemur -28.621 -9.11422 -24.0669
ltibia 12.1952
lfoot -7.71345 0.116289
ltoes -20.3083
427
root 12.3165 18.928 8.50163 -153.821 5.70557 176.037
lowerback -23.6925 -2.87509 -6.2338
upperback 0.886039 -1.94234 0.489051
thorax 14.6563 -1.31006 3.4644
lowerneck -1.91032 -1.50093 -0.283264
upperneck 15.526 -1.39935 0.921636
head 4.98093 -0.349547 0.290484
rclavicle 3.05631e-014 9.14409e-015
rhumerus -35.9112 -15.7808 -77.5771
rradius 38.0238
rwrist -4.378
rhand -9.24958 -411.079
rfingers 7.12502
rthumb 16.7062 -80.38
lclavicle 3.05631e-014 9.14409e-015
lhumerus -29.9384 19.9582 72.8462
lradius 7.23551
lwrist -25.8623
lhand -19.457 -10.6509
lfingers 7.12502
lthumb 6.86399 19.2178
rfemur -28.8744 8.37281 15.9454
rtibia 9.77059
rfoot -16.4442 -0.385408
rtoes -18.3143
lfemur -28.3435 -9.04719 -24.2835
ltibia 11.9949
lfoot -7.74919 0.0409461
ltoes -20.9257
428
root 12.323 18.9291 8.4731 -153.862 5.685 175.941
lowerback -23.8577 -2.91553 -6.43411
upperback 0.830161 -1.91021 0.437036
thorax 14.6875 -1.30321 3.52977
lowerneck -2.048 -1.59567 -0.339757
upperneck 15.2973 -1.5712 1.0382
head 4.93626 -0.442663 0.325924
rclavicle 2.47984e-014 -5.66536e-015
rhumerus -35.7312 -15.8884 -77.5735
rradius 37.5283
rwrist -4.08095
rhand -9.13712 -411.102
rfingers 7.12502
rthumb 16.8144 -80.3941
lclavicle 2.47984e-014 -5.66536e-015
lhumerus -29.9146 20.4381 72.5839
lradius 6.93935
lwrist -25.7547
lhand -19.6451 -10.3485
lfingers 7.12502
lthumb 6.68244 19.5261
rfemur -28.6168 8.50534 15.8312
rtibia 9.5717
rfoot -16.4298 -0.519318
rtoes -18.0543
lfemur -28.1268 -9.0237 -24.3901
ltibia 11.8568
lfoot -7.80143 -0.0424488
ltoes -20.9793
429
root 12.3295 18.9252 8.44435 -153.872 5.67559 176.059
lowerback -24.1376 -2.85934 -6.36919
upperback 0.808099 -1.81445 0.364198
thorax 14.8049 -1.24992 3.43992
lowerneck -2.17633 -1.77343 -0.244306
upperneck 15.0509 -1.86904 1.177
head 4.88459 -0.588046 0.336997
rclavicle -7.65321e-015 2.69353e-014
rhumerus -35.5949 -15.8352 -77.7361
rradius 37.1047
rwrist -4.0462
rhand -9.11112 -411.228
rfingers 7.12502
rthumb 16.8395 -80.5179
lclavicle -7.65321e-015 2.69353e-014
lhumerus -29.8128 20.8077 72.2276
lradius 6.72825
lwrist -25.4713
lhand -19.7336 -9.75201
lfingers 7.12502
lthumb 6.59702 20.1252
rfemur -28.3505 8.6265 15.9882
rtibia 9.32692
rfoot -16.4033 -0.518622
rtoes -18.1165
lfemur -27.9273 -9.02592 -24.2277
ltibia 11.7243
lfoot -7.82965 -0.00944823
ltoes -20.7681
430
root 12.3372 18.9183 8.4104 -153.933 5.66514 176.271
lowerback -24.4074 -2.80884 -6.21574
upperback 0.763866 -1.7595 0.331837
thorax 14.8928 -1.2088 3.33194
lowerneck -2.21287 -1.93426 -0.121862
upperneck 14.8619 -2.11705 1.18759
head 4.83326 -0.711237 0.307402
rclavicle -1.19022e-014 -8.79622e-015
rhumerus -35.6547 -15.8192 -77.8168
rradius 36.7489
rwrist -3.93134
rhand -9.24064 -411.514
rfingers 7.12502
rthumb 16.7148 -80.8142
lclavicle -1.19022e-014 -8.79622e-015
lhumerus -29.7893 21.257 71.8396
lradius 6.61426
lwrist -25.0452
lhand -19.6644 -9.35586
lfingers 7.12502
lthumb 6.66384 20.5193
rfemur -28.0273 8.76491 16.2845
rtibia 9.14104
rfoot -16.4234 -0.522547
rtoes -18.0395
lfemur -27.6005 -8.95377 -23.9841
ltibia 11.4865
lfoot -7.7694 0.0128693
ltoes -20.4578
431
root 12.341 18.9159 8.37655 -154.009 5.57468 176.239
lowerback -24.5948 -2.83229 -6.25583
upperback 0.692251 -1.73992 0.240875
thorax 14.9104 -1.19106 3.25585
lowerneck -2.23666 -2.03905 -0.0598623
upperneck 14.6822 -2.29293 1.28534
head 4.78372 -0.796261 0.318507
rclavicle 1.17159e-014 1.49089e-014
rhumerus -35.7085 -16.0873 -77.8416
rradius 36.3797
rwrist -3.5769
rhand -9.32591 -412.363
rfingers 7.12502
rthumb 16.6327 -81.6705
lclavicle 1.17159e-014 1.49089e-014
lhumerus -29.7821 21.6833 71.49
lradius 6.65458
lwrist -24.578
lhand -19.4879 -8.96042
lfingers 7.12502
lthumb 6.83415 20.9093
rfemur -27.6772 8.64032 16.3536
rtibia 8.96329
rfoot -16.4432 -0.476157
rtoes -17.7077
lfemur -27.2285 -8.94841 -24.0642
ltibia 11.1835
lfoot -7.68355 -0.109601
ltoes -20.0481
432
root 12.3473 18.9148 8.34731 -154.072 5.4912 176.194
lowerback -24.7671 -2.81156 -6.35131
upperback 0.687032 -1.64611 0.127269
thorax 14.9922 -1.1487 3.21194
lowerneck -2.41744 -2.08527 0.0773918
upperneck 14.4936 -2.39222 1.29578
head 4.75546 -0.847913 0.292428
rclavicle 2.02512e-014 -2.80783e-015
rhumerus -35.5284 -16.4739 -77.9157
rradius 35.8523
rwrist -3.2603
rhand -9.32144 -412.951
rfingers 7.12502
rthumb 16.637 -82.2582
lclavicle 2.02512e-014 -2.80783e-015
lhumerus -29.594 22.0125 71.2329
lradius 6.73878
lwrist -24.2824
lhand -19.4745 -8.88699
lfingers 7.12502
lthumb 6.84713 20.9823
rfemur -27.3938 8.61215 16.3626
rtibia 8.82102
rfoot -16.4691 -0.533537
rtoes -17.8132
lfemur -26.9364 -8.92977 -24.1265
ltibia 10.9749
lfoot -7.68367 -0.214404
ltoes -19.6683
433
root 12.3523 18.9113 8.3195 -154.068 5.5177 176.179
lowerback -24.9973 -2.78765 -6.45723
upperback 0.658552 -1.54614 0.0615462
thorax 15.0803 -1.10606 3.23198
lowerneck -2.5916 -2.12142 0.105442
upperneck 14.2676 -2.46579 1.24855
head 4.71504 -0.898193 0.267838
rclavicle -2.66884e-015 1.77353e-015
rhumerus -35.3837 -16.7195 -77.8692
rradius 35.2759
rwrist -2.91561
rhand -9.03968 -412.537
rfingers 7.12502
rthumb 16.9082 -81.8212
lclavicle -2.66884e-015 1.77353e-015
lhumerus -29.5744 22.4164 70.9655
lradius 6.8819
lwrist -24.2612
lhand -20.0424 -9.36015
lfingers 7.12502
lthumb 6.29889 20.5262
rfemur -27.2505 8.58915 16.3633
rtibia 8.72572
rfoot -16.5272 -0.463101
rtoes -18.0289
lfemur -26.7538 -8.89515 -24.1501
ltibia 10.8204
lfoot -7.73616 -0.238569
ltoes -19.3556
434
root 12.3554 18.9069 8.28859 -154.085 5.52285 176.218
lowerback -25.0479 -2.78047 -6.53958
upperback 0.473922 -1.49732 0.0749378
thorax 14.8848 -1.07381 3.31715
lowerneck -2.62592 -2.11151 -0.000971462
upperneck 13.5743 -2.46121 1.2148
head 5.01699 -0.921658 0.309001
rclavicle -1.19453e-014 -3.27839e-015
rhumerus -35.5436 -17.003 -77.5785
rradius 34.6934
rwrist -2.39593
rhand -8.62985 -411.71
rfingers 7.12502
rthumb 17.3027 -80.9597
lclavicle -1.19453e-014 -3.27839e-015
lhumerus -30.05 22.7804 70.5869
lradius 7.27901
lwrist -24.2156
lhand -20.5719 -10.063
lfingers 7.12502
lthumb 5.78765 19.838
rfemur -27.017 8.50473 16.4556
rtibia 8.54796
rfoot -16.4886 -0.321574
rtoes -17.8318
lfemur -26.5227 -8.83852 -24.1376
ltibia 10.6302
lfoot -7.72975 -0.269183
ltoes -19.6242
435
root 12.3572 18.9023 8.25666 -154.084 5.39561 176.349
lowerback -24.9288 -2.79963 -6.49428
upperback 0.0991412 -1.5382 0.165558
thorax 14.3746 -1.05671 3.39068
lowerneck -2.48147 -2.12184 -0.119845
upperneck 13.5483 -2.44599 1.09547
head 4.97743 -0.925142 0.291524
rclavicle -3.72721e-016 -1.26353e-014
rhumerus -36.0137 -17.0628 -77.1982
rradius 34.1573
rwrist -2.05108
rhand -8.52476 -411.111
rfingers 7.12502
rthumb 17.4039 -80.3524
lclavicle -3.72721e-016 -1.26353e-014
lhumerus -30.9268 23.1097 70.1449
lradius 7.87984
lwrist -24.0321
lhand -20.5225 -10.4316
lfingers 7.12502
lthumb 5.83533 19.468
rfemur -26.701 8.28756 16.7364
rtibia 8.29298
rfoot -16.4328 -0.134055
rtoes -17.5362
lfemur -26.2728 -8.73408 -24.047
ltibia 10.4155
lfoot -7.68339 -0.391615
ltoes -20.2156
436
root 12.3571 18.8974 8.22737 -154.108 5.1129 176.559
lowerback -25.6609 -2.85348 -6.12689
upperback 0.188931 -1.65671 0.176595
thorax 14.8958 -1.09579 3.13663
lowerneck -2.05687 -2.2235 -0.393446
upperneck 13.2118 -2.59754 1.329
head 4.77625 -1.00896 0.415971
rclavicle 1.35515e-014 1.03741e-015
rhumerus -35.7247 -17.067 -77.2722
rradius 33.5568
rwrist -1.88287
rhand -8.50977 -410.714
rfingers 7.12502
rthumb 17.4183 -79.9537
lclavicle 1.35515e-014 1.03741e-015
lhumerus -30.9171 23.7877 69.8676
lradius 8.23542
lwrist -23.8863
lhand -20.3637 -10.2775
lfingers 7.12502
lthumb 5.98864 19.6178
rfemur -26.3158 7.93489 17.1896
rtibia 8.00507
rfoot -16.4355 0.105898
rtoes -17.4103
lfemur -25.9942 -8.70516 -23.8383
ltibia 10.2085
lfoot -7.64815 -0.568158
ltoes -20.1544
